<svg width="70" height="71" viewBox="0 0 70 71" fill="none" xmlns="http://www.w3.org/2000/svg">
<path d="M35 68.3125C16.9068 68.3125 2.1875 53.5933 2.1875 35.5C2.1875 17.4068 16.9068 2.6875 35 2.6875C53.0933 2.6875 67.8125 17.4068 67.8125 35.5C67.8125 53.5933 53.0933 68.3125 35 68.3125Z" fill="#F78F8F"/>
<path d="M35 3.125C52.8517 3.125 67.375 17.6482 67.375 35.5C67.375 53.3517 52.8517 67.875 35 67.875C17.1482 67.875 2.625 53.3517 2.625 35.5C2.625 17.6482 17.1482 3.125 35 3.125ZM35 2.25C16.6364 2.25 1.75 17.1364 1.75 35.5C1.75 53.8636 16.6364 68.75 35 68.75C53.3636 68.75 68.25 53.8636 68.25 35.5C68.25 17.1364 53.3636 2.25 35 2.25Z" fill="#C74343"/>
<path d="M46.3978 19.7539L38.6015 34.0322H44.5305V37.5689H37.4815V41.5887H44.5305V45.1254H37.4815V51.2539H32.4747V45.1254H25.2061V41.5887H32.4747V37.5689H25.2061V34.0322H31.2454L23.6031 19.7539H29.0929L34.1661 30.6057C34.5468 31.4247 34.8609 32.2095 35.1103 32.9559H35.1978C35.3736 32.3697 35.7026 31.5437 36.1856 30.4735L41.2143 19.7539H46.3978Z" fill="white"/>
</svg>
