<svg width="70" height="62" viewBox="0 0 70 62" fill="none" xmlns="http://www.w3.org/2000/svg">
<path d="M21.9693 7.98871e-05C21.6826 -0.00236895 21.3983 0.0515046 21.1329 0.158562C20.8675 0.26562 20.6263 0.423723 20.4235 0.623662C20.2206 0.8236 20.06 1.06138 19.9512 1.32315C19.8423 1.58492 19.7873 1.86545 19.7894 2.14841V10.4246H0V28.6838H70V10.3935H50.2736V2.14841C50.2757 1.86572 50.2208 1.58544 50.1121 1.32388C50.0035 1.06231 49.8432 0.824673 49.6407 0.624776C49.4381 0.424879 49.1973 0.266711 48.9323 0.159468C48.6673 0.0522254 48.3833 -0.00195463 48.0968 7.98871e-05H21.9693ZM24.1461 4.29673H45.9201V10.4246H24.1461V4.29673ZM0 32.9805V62H61.7087C63.9135 61.9835 66.0222 61.1075 67.5753 59.5631C69.1284 58.0186 69.9999 55.9309 70 53.7549V32.9805H56.4354V40.0815C56.4374 40.3642 56.3825 40.6444 56.2739 40.906C56.1652 41.1676 56.0049 41.4052 55.8024 41.6051C55.5998 41.805 55.3591 41.9632 55.094 42.0704C54.829 42.1777 54.545 42.2318 54.2586 42.2298H46.2918C45.7269 42.2135 45.191 41.9795 44.7988 41.5779C44.4067 41.1763 44.1895 40.6392 44.1938 40.0815V32.9805H25.9511V40.0815C25.9532 40.3642 25.8983 40.6444 25.7896 40.906C25.681 41.1676 25.5207 41.4052 25.3182 41.6051C25.1156 41.805 24.8748 41.9632 24.6098 42.0704C24.3448 42.1777 24.0608 42.2318 23.7744 42.2298H15.8076C15.5211 42.2318 15.2372 42.1777 14.9721 42.0704C14.7071 41.9632 14.4663 41.805 14.2638 41.6051C14.0612 41.4052 13.901 41.1676 13.7923 40.906C13.6836 40.6444 13.6287 40.3642 13.6308 40.0815V32.9805H0ZM17.9686 32.9805V37.9331H21.5976V32.9805H17.9686ZM48.4686 32.9805V37.9331H52.0976V32.9805H48.4686Z" fill="#F78F8F"/>
</svg>
