<svg width="70" height="70" viewBox="0 0 70 70" fill="none" xmlns="http://www.w3.org/2000/svg">
<path d="M53.2 0V5.6H60.4625L47.6 18.4625L43.9687 14.8313L42 12.8187L40.0312 14.8313L25.2 29.6625L21.5687 26.0312L19.6 24.0187L17.6312 26.0312L0.831238 42.8312L4.76874 46.7687L19.6 31.9375L23.2312 35.5687L25.2 37.5812L27.1687 35.5687L42 20.7375L45.6312 24.3687L47.6 26.3813L49.5687 24.3687L64.4 9.5375V16.8H70V0H53.2ZM61.6 21V70H67.2V21H61.6ZM42 28V70H47.6V28H42ZM51.8 28V70H57.4V28H51.8ZM32.2 33.6V70H37.8V33.6H32.2ZM22.4 42V70H28V42H22.4ZM12.6 43.4V70H18.2V43.4H12.6ZM2.79999 53.2V70H8.39999V53.2H2.79999Z" fill="#F78F8F"/>
</svg>
